<svg height="50" viewBox="0 0 64 64" width="50" xmlns="http://www.w3.org/2000/svg" xmlns:xlink="http://www.w3.org/1999/xlink"><linearGradient id="linear-gradient" gradientUnits="userSpaceOnUse" x1="-2" x2="66.029" y1="54.902" y2="54.902"><stop offset="0" stop-color="#2dced9"/><stop offset=".155" stop-color="#45cdc4"/><stop offset=".484" stop-color="#83ca8d"/><stop offset=".956" stop-color="#e5c636"/><stop offset="1" stop-color="#efc62d"/></linearGradient><linearGradient id="linear-gradient-2" x2="66.029" xlink:href="#linear-gradient" y1="57" y2="57"/><linearGradient id="linear-gradient-3" x2="66.029" xlink:href="#linear-gradient" y1="32" y2="32"/><linearGradient id="linear-gradient-4" x2="66.029" xlink:href="#linear-gradient" y1="14" y2="14"/><linearGradient id="linear-gradient-5" x2="66.029" xlink:href="#linear-gradient" y1="19" y2="19"/><linearGradient id="linear-gradient-6" x2="66.029" xlink:href="#linear-gradient" y1="36" y2="36"/><g id="Gradient_outline" data-name="Gradient outline"><path d="m32 58v-2h-6.181l-.839-4.196-1.96.392 1.161 5.804z" fill="url(#linear-gradient)"/><path d="m34 56h2v2h-2z" fill="url(#linear-gradient-2)"/><path d="m36 35h6a9.01 9.01 0 0 0 9-9v-3h-7a9.01 9.01 0 0 0 -9 9v1.1a4.242 4.242 0 0 0 -2 .952v-14.089c4.463-.319 7-2.815 7-6.963 0-4.844-7.075-10.542-7.377-10.782a1 1 0 0 0 -1.246 0c-.302.24-7.377 5.938-7.377 10.782 0 4.148 2.537 6.644 7 6.963v11.092a4.242 4.242 0 0 0 -2-.952v-1.103a9.01 9.01 0 0 0 -9-9h-7v3a9.01 9.01 0 0 0 9 9h6c2.943 0 3 3.839 3 4v8h-13a1 1 0 0 0 -1 1v4a1 1 0 0 0 1 1h1.153l1.861 11.165a1 1 0 0 0 .986.835h20a1 1 0 0 0 .986-.835l1.861-11.165h1.153a1 1 0 0 0 1-1v-4a1 1 0 0 0 -1-1h-13v-5c0-.163.034-4 3-4zm8-10h5v1a7.008 7.008 0 0 1 -7 7h-2.7l6.252-4.168-1.11-1.664-7.442 4.964v-.132a7.008 7.008 0 0 1 7-7zm-29-2v-1h5a7.008 7.008 0 0 1 7 7v.132l-7.445-4.964-1.11 1.664 6.255 4.168h-2.7a7.008 7.008 0 0 1 -7-7zm26.153 37h-18.306l-1.666-10h21.638zm3.847-12h-26v-2h26zm-19-35c0-2.9 3.885-6.867 6-8.7 2.115 1.831 6 5.793 6 8.7 0 3.022-1.693 4.671-5 4.944v-2.53l2.707-2.707-1.414-1.414-1.293 1.293v-4.586h-2v2.132l-1.445-.964-1.11 1.664 2.555 1.703v5.409c-3.307-.273-5-1.922-5-4.944z" fill="url(#linear-gradient-3)"/><path d="m18 13h2v2h-2z" fill="url(#linear-gradient-4)"/><path d="m41 18h2v2h-2z" fill="url(#linear-gradient-5)"/><path d="m25 35h2v2h-2z" fill="url(#linear-gradient-6)"/></g></svg>